<svg width="727" height="179" viewBox="0 0 727 179" fill="none" xmlns="http://www.w3.org/2000/svg">
<path d="M707.241 45.7266L707.255 42.2605C694.499 43.151 683.876 32.5345 684.722 19.7252L681.85 19.7293C682.632 31.6055 673.544 41.6814 661.863 42.2934C650.139 42.9082 640.156 33.9217 639.575 22.1347C639.006 10.5658 648.127 0.0219846 660.055 0.0164964L706.435 3.22581e-05C717.34 -0.00408381 726.905 9.21012 726.905 20.2164L726.905 67.7392C726.904 79.636 716.23 88.6252 704.807 88.0392C693.007 87.4341 684.062 77.4076 684.708 65.6617C685.349 53.9913 695.434 44.9074 707.241 45.7253L707.241 45.7266Z" fill="#2D2328"/>
<path d="M659.44 45.6545C659.441 45.655 659.441 45.6552 659.442 45.6552C671.22 44.9298 681.206 53.9161 681.914 65.5327C682.629 77.2758 673.681 87.3751 661.928 88.031C650.325 88.6786 640.323 79.8185 639.59 68.1604C638.862 56.5713 647.654 46.3817 659.439 45.6539C659.439 45.6539 659.44 45.6541 659.44 45.6545Z" fill="#2D2328"/>
<path d="M681.179 159.311L684.645 159.325C683.754 146.569 694.371 135.946 707.18 136.792L707.176 133.92C695.3 134.702 685.224 125.614 684.612 113.932C683.997 102.209 692.984 92.226 704.771 91.6449C716.339 91.0761 726.883 100.197 726.889 112.125L726.905 158.505C726.909 169.41 717.695 178.975 706.689 178.975L659.166 178.975C647.269 178.974 638.28 168.3 638.866 156.877C639.471 145.076 649.498 136.132 661.244 136.778C672.914 137.419 681.998 147.504 681.18 159.311L681.179 159.311Z" fill="#2D2328"/>
<path d="M681.251 111.51C681.25 111.511 681.25 111.511 681.25 111.512C681.976 123.29 672.989 133.276 661.373 133.983C649.63 134.699 639.53 125.751 638.874 113.998C638.227 102.395 647.087 92.3932 658.745 91.6599C670.334 90.9322 680.524 99.7237 681.252 111.508C681.252 111.509 681.251 111.51 681.251 111.51Z" fill="#2D2328"/>
<path d="M567.595 133.247L567.581 136.713C580.336 135.823 590.959 146.439 590.114 159.249L592.985 159.245C592.204 147.368 601.292 137.292 612.973 136.68C624.697 136.066 634.679 145.052 635.261 156.839C635.829 168.408 626.708 178.952 614.781 178.957L568.4 178.974C557.495 178.978 547.93 169.764 547.93 158.757L547.93 111.235C547.932 99.3379 558.605 90.3487 570.029 90.9346C581.829 91.5398 590.773 101.566 590.128 113.312C589.486 124.983 579.402 134.066 567.595 133.249L567.595 133.247Z" fill="#2D2328"/>
<path d="M615.395 133.319C615.395 133.319 615.394 133.319 615.394 133.319C603.616 134.044 593.629 125.058 592.922 113.441C592.207 101.698 601.155 91.5988 612.907 90.9429C624.51 90.2952 634.512 99.1554 635.245 110.813C635.973 122.403 627.182 132.592 615.397 133.32C615.396 133.32 615.396 133.32 615.395 133.319Z" fill="#2D2328"/>
<path d="M593.302 19.6644L589.836 19.6507C590.727 32.4063 580.11 43.0293 567.301 42.1837L567.305 45.0549C579.181 44.2737 589.257 53.3617 589.869 65.0428C590.484 76.7663 581.497 86.7493 569.71 87.3304C558.141 87.8992 547.598 78.7783 547.592 66.8505L547.576 20.4703C547.572 9.56498 556.786 3.1774e-05 567.792 3.1774e-05L615.315 3.1774e-05C627.212 0.00140231 636.201 10.6751 635.615 22.0985C635.01 33.8988 624.983 42.8429 613.237 42.1974C601.567 41.556 592.483 31.4716 593.301 19.6644H593.302Z" fill="#2D2328"/>
<path d="M593.23 67.4652C593.231 67.4648 593.231 67.4642 593.231 67.4636C592.506 55.6856 601.492 45.6991 613.108 44.9919C624.852 44.2765 634.951 53.2247 635.607 64.977C636.254 76.5799 627.394 86.5821 615.736 87.3153C604.147 88.0431 593.957 79.2516 593.23 67.4669C593.23 67.4663 593.23 67.4657 593.23 67.4652Z" fill="#2D2328"/>
<path d="M342.19 45.7266L342.204 42.2605C329.448 43.151 318.825 32.5345 319.671 19.7252L316.8 19.7293C317.581 31.6055 308.493 41.6814 296.812 42.2934C285.088 42.9082 275.105 33.9217 274.524 22.1347C273.956 10.5658 283.076 0.0219846 295.004 0.0164964L341.384 3.22581e-05C352.29 -0.00408381 361.855 9.21012 361.855 20.2164L361.855 67.7392C361.853 79.636 351.18 88.6252 339.756 88.0392C327.956 87.4341 319.012 77.4076 319.657 65.6617C320.299 53.9913 330.383 44.9074 342.19 45.7253L342.19 45.7266Z" fill="#2D2328"/>
<path d="M294.389 45.6545C294.39 45.655 294.39 45.6552 294.391 45.6552C306.169 44.9298 316.156 53.9161 316.863 65.5327C317.578 77.2758 308.63 87.3751 296.878 88.031C285.275 88.6786 275.273 79.8185 274.539 68.1604C273.812 56.5713 282.603 46.3817 294.388 45.6539C294.388 45.6539 294.389 45.6541 294.389 45.6545Z" fill="#2D2328"/>
<path d="M316.128 159.311L319.594 159.325C318.704 146.569 329.32 135.946 342.13 136.792L342.126 133.92C330.249 134.702 320.173 125.614 319.561 113.932C318.947 102.209 327.933 92.226 339.72 91.6449C351.289 91.0761 361.833 100.197 361.838 112.125L361.855 158.505C361.859 169.41 352.645 178.975 341.638 178.975L294.116 178.975C282.219 178.974 273.23 168.3 273.816 156.877C274.421 145.076 284.447 136.132 296.193 136.778C307.863 137.419 316.947 147.504 316.13 159.311L316.128 159.311Z" fill="#2D2328"/>
<path d="M316.2 111.51C316.2 111.511 316.199 111.511 316.199 111.512C316.925 123.29 307.939 133.276 296.322 133.983C284.579 134.699 274.48 125.751 273.824 113.998C273.176 102.395 282.036 92.3932 293.694 91.6599C305.283 90.9322 315.473 99.7237 316.201 111.508C316.201 111.509 316.201 111.51 316.2 111.51Z" fill="#2D2328"/>
<path d="M202.544 133.247L202.53 136.713C215.286 135.823 225.909 146.439 225.063 159.249L227.934 159.245C227.153 147.368 236.241 137.292 247.922 136.68C259.646 136.066 269.629 145.052 270.21 156.839C270.779 168.408 261.658 178.952 249.73 178.957L203.35 178.974C192.444 178.978 182.879 169.764 182.879 158.757L182.879 111.235C182.881 99.3379 193.554 90.3487 204.978 90.9346C216.778 91.5398 225.722 101.566 225.077 113.312C224.435 124.983 214.351 134.066 202.544 133.249L202.544 133.247Z" fill="#2D2328"/>
<path d="M250.344 133.319C250.344 133.319 250.343 133.319 250.343 133.319C238.565 134.044 228.578 125.058 227.871 113.441C227.156 101.698 236.104 91.5988 247.856 90.9429C259.459 90.2952 269.461 99.1554 270.195 110.813C270.922 122.403 262.131 132.592 250.346 133.32C250.346 133.32 250.345 133.32 250.344 133.319Z" fill="#2D2328"/>
<path d="M228.252 19.6644L224.786 19.6507C225.676 32.4063 215.06 43.0293 202.25 42.1837L202.254 45.0549C214.131 44.2737 224.207 53.3617 224.819 65.0428C225.433 76.7663 216.447 86.7493 204.66 87.3304C193.091 87.8992 182.547 78.7783 182.542 66.8505L182.525 20.4703C182.521 9.56498 191.735 3.1774e-05 202.742 3.1774e-05L250.264 3.1774e-05C262.161 0.00140231 271.15 10.6751 270.564 22.0985C269.959 33.8988 259.933 42.8429 248.187 42.1974C236.516 41.556 227.433 31.4716 228.25 19.6644H228.252Z" fill="#2D2328"/>
<path d="M228.18 67.4652C228.18 67.4648 228.18 67.4642 228.18 67.4636C227.455 55.6856 236.441 45.6991 248.058 44.9919C259.801 44.2765 269.9 53.2247 270.556 64.977C271.204 76.5799 262.344 86.5821 250.686 87.3153C239.097 88.0431 228.907 79.2516 228.179 67.4669C228.179 67.4663 228.179 67.4657 228.18 67.4652Z" fill="#2D2328"/>
<path d="M524.715 45.7266L524.729 42.2605C511.974 43.151 501.351 32.5345 502.196 19.7252L499.325 19.7293C500.106 31.6055 491.018 41.6814 479.337 42.2934C467.614 42.9082 457.631 33.9217 457.049 22.1347C456.481 10.5658 465.602 0.0219846 477.529 0.0164964L523.91 3.22581e-05C534.815 -0.00408381 544.38 9.21012 544.38 20.2164L544.38 67.7392C544.379 79.636 533.705 88.6252 522.281 88.0392C510.481 87.4341 501.537 77.4076 502.183 65.6617C502.824 53.9913 512.908 44.9074 524.715 45.7253L524.715 45.7266Z" fill="#2D2328"/>
<path d="M476.915 45.6545C476.915 45.655 476.916 45.6552 476.916 45.6552C488.694 44.9298 498.681 53.9161 499.388 65.5327C500.104 77.2758 491.155 87.3751 479.403 88.031C467.8 88.6786 457.798 79.8185 457.065 68.1604C456.337 56.5713 465.128 46.3817 476.913 45.6539C476.914 45.6539 476.914 45.6541 476.915 45.6545Z" fill="#2D2328"/>
<path d="M498.654 159.311L502.12 159.325C501.229 146.569 511.846 135.946 524.655 136.792L524.651 133.92C512.775 134.702 502.699 125.614 502.087 113.932C501.472 102.209 510.458 92.226 522.245 91.6449C533.814 91.0761 544.358 100.197 544.364 112.125L544.38 158.505C544.384 169.41 535.17 178.975 524.164 178.975L476.641 178.975C464.744 178.974 455.755 168.3 456.341 156.877C456.946 145.076 466.973 136.132 478.718 136.778C490.389 137.419 499.473 147.504 498.655 159.311L498.654 159.311Z" fill="#2D2328"/>
<path d="M498.725 111.51C498.725 111.511 498.725 111.511 498.725 111.512C499.45 123.29 490.464 133.276 478.847 133.983C467.104 134.699 457.005 125.751 456.349 113.998C455.701 102.395 464.562 92.3932 476.22 91.6599C487.809 90.9322 497.998 99.7237 498.726 111.508C498.726 111.509 498.726 111.51 498.725 111.51Z" fill="#2D2328"/>
<path d="M385.069 133.247L385.056 136.713C397.811 135.823 408.434 146.439 407.588 159.249L410.46 159.245C409.679 147.368 418.767 137.292 430.448 136.68C442.171 136.066 452.154 145.052 452.735 156.839C453.304 168.408 444.183 178.952 432.255 178.957L385.875 178.974C374.97 178.978 365.405 169.764 365.405 158.757L365.405 111.235C365.406 99.3379 376.08 90.3487 387.503 90.9346C399.304 91.5398 408.248 101.566 407.602 113.312C406.961 124.983 396.876 134.066 385.069 133.249L385.069 133.247Z" fill="#2D2328"/>
<path d="M432.87 133.319C432.869 133.319 432.869 133.319 432.868 133.319C421.09 134.044 411.104 125.058 410.397 113.441C409.681 101.698 418.629 91.5988 430.382 90.9429C441.985 90.2952 451.987 99.1554 452.72 110.813C453.448 122.403 444.656 132.592 432.872 133.32C432.871 133.32 432.87 133.32 432.87 133.319Z" fill="#2D2328"/>
<path d="M410.777 19.6644L407.311 19.6507C408.202 32.4063 397.585 43.0293 384.776 42.1837L384.78 45.0549C396.656 44.2737 406.732 53.3617 407.344 65.0428C407.959 76.7663 398.972 86.7493 387.185 87.3304C375.616 87.8992 365.073 78.7783 365.067 66.8505L365.051 20.4703C365.046 9.56498 374.261 3.1774e-05 385.267 3.1774e-05L432.79 3.1774e-05C444.687 0.00140231 453.676 10.6751 453.09 22.0985C452.485 33.8988 442.458 42.8429 430.712 42.1974C419.042 41.556 409.958 31.4716 410.776 19.6644H410.777Z" fill="#2D2328"/>
<path d="M410.705 67.4652C410.706 67.4648 410.706 67.4642 410.706 67.4636C409.98 55.6856 418.967 45.6991 430.583 44.9919C442.326 44.2765 452.426 53.2247 453.082 64.977C453.729 76.5799 444.869 86.5821 433.211 87.3153C421.622 88.0431 411.432 79.2516 410.705 67.4669C410.705 67.4663 410.705 67.4657 410.705 67.4652Z" fill="#2D2328"/>
<path d="M159.665 45.7266L159.679 42.2605C146.923 43.151 136.3 32.5345 137.146 19.7252L134.275 19.7293C135.056 31.6055 125.968 41.6814 114.287 42.2934C102.563 42.9082 92.5803 33.9217 91.9992 22.1347C91.4304 10.5658 100.551 0.0219846 112.479 0.0164964L158.859 3.22581e-05C169.765 -0.00408381 179.33 9.21012 179.33 20.2164L179.33 67.7392C179.328 79.636 168.655 88.6252 157.231 88.0392C145.431 87.4341 136.487 77.4076 137.132 65.6617C137.774 53.9913 147.858 44.9074 159.665 45.7253L159.665 45.7266Z" fill="#2D2328"/>
<path d="M111.864 45.6545C111.865 45.655 111.865 45.6552 111.866 45.6552C123.644 44.9298 133.63 53.9161 134.338 65.5327C135.053 77.2758 126.105 87.3751 114.352 88.031C102.75 88.6786 92.7474 79.8185 92.0142 68.1604C91.2864 56.5713 100.078 46.3817 111.863 45.6539C111.863 45.6539 111.864 45.6541 111.864 45.6545Z" fill="#2D2328"/>
<path d="M133.603 159.311L137.069 159.325C136.179 146.569 146.795 135.946 159.604 136.792L159.6 133.92C147.724 134.702 137.648 125.614 137.036 113.932C136.421 102.209 145.408 92.226 157.195 91.6449C168.764 91.0761 179.308 100.197 179.313 112.125L179.33 158.505C179.334 169.41 170.12 178.975 159.113 178.975L111.59 178.975C99.6936 178.974 90.7045 168.3 91.2904 156.877C91.8955 145.076 101.922 136.132 113.668 136.778C125.338 137.419 134.422 147.504 133.604 159.311L133.603 159.311Z" fill="#2D2328"/>
<path d="M133.675 111.51C133.675 111.511 133.674 111.511 133.674 111.512C134.4 123.29 125.413 133.276 113.797 133.983C102.054 134.699 91.9544 125.751 91.2985 113.998C90.6509 102.395 99.5111 92.3932 111.169 91.6599C122.758 90.9322 132.948 99.7237 133.676 111.508C133.676 111.509 133.675 111.51 133.675 111.51Z" fill="#2D2328"/>
<path d="M20.0188 133.247L20.0051 136.713C32.7606 135.823 43.3837 146.439 42.538 159.249L45.4093 159.245C44.6281 147.368 53.7161 137.292 65.3972 136.68C77.1207 136.066 87.1037 145.052 87.6848 156.839C88.2535 168.408 79.1326 178.952 67.2049 178.957L20.8247 178.974C9.91933 178.978 0.354379 169.764 0.354381 158.757L0.354387 111.235C0.355759 99.3379 11.0295 90.3487 22.4529 90.9346C34.2532 91.5398 43.1973 101.566 42.5517 113.312C41.9103 124.983 31.8259 134.066 20.0188 133.249L20.0188 133.247Z" fill="#2D2328"/>
<path d="M67.8196 133.319C67.8191 133.319 67.8185 133.319 67.8179 133.319C56.04 134.044 46.0534 125.058 45.3462 113.441C44.6308 101.698 53.579 91.5988 65.3314 90.9429C76.9343 90.2952 86.9365 99.1554 87.6697 110.813C88.3974 122.403 79.606 132.592 67.8212 133.32C67.8206 133.32 67.82 133.32 67.8196 133.319Z" fill="#2D2328"/>
<path d="M45.7266 19.6644L42.2605 19.6507C43.151 32.4063 32.5345 43.0293 19.7251 42.1837L19.7292 45.0549C31.6055 44.2737 41.6814 53.3617 42.2934 65.0428C42.9081 76.7663 33.9217 86.7493 22.1347 87.3304C10.5658 87.8992 0.0219641 78.7783 0.0164754 66.8505L9.20206e-06 20.4703C-0.00410734 9.56498 9.2101 3.1774e-05 20.2164 3.1774e-05L67.7392 3.1774e-05C79.636 0.00140231 88.6251 10.6751 88.0392 22.0985C87.4341 33.8988 77.4075 42.8429 65.6617 42.1974C53.9913 41.556 44.9074 31.4716 45.7252 19.6644H45.7266Z" fill="#2D2328"/>
<path d="M45.6545 67.4652C45.655 67.4648 45.6552 67.4642 45.6551 67.4636C44.9298 55.6856 53.9161 45.6991 65.5326 44.9919C77.2758 44.2765 87.375 53.2247 88.0309 64.977C88.6786 76.5799 79.8184 86.5821 68.1604 87.3153C56.5712 88.0431 46.3817 79.2516 45.6539 67.4669C45.6539 67.4663 45.6541 67.4657 45.6545 67.4652Z" fill="#2D2328"/>
</svg>
