<svg width="88" height="88" viewBox="0 0 88 88" fill="none" xmlns="http://www.w3.org/2000/svg">
<path d="M45.6922 19.6496L42.2287 19.6359C43.1185 32.3819 32.51 42.9969 19.7103 42.1519L19.7144 45.021C31.5817 44.2404 41.65 53.3215 42.2616 64.9938C42.8758 76.7085 33.8962 86.684 22.118 87.2647C10.5579 87.833 0.0219398 78.719 0.0164552 66.8002L1.37776e-06 20.4549C-0.00411207 9.55775 9.20316 0 20.2011 0H67.6882C79.576 0.0013695 88.5584 10.6671 87.9729 22.0818C87.3683 33.8733 77.3493 42.8106 65.6122 42.1656C53.9506 41.5247 44.8736 31.4479 45.6908 19.6496H45.6922Z" fill="#F3F1EF"/>
<path d="M65.8483 50.9473C74.2764 50.4339 81.5049 56.8531 81.9742 65.2627C82.4301 73.4323 76.2902 80.5117 68.1227 81.2324L67.7321 81.2617C59.4271 81.7827 52.144 75.4822 51.61 67.0732C51.6094 67.0635 51.6096 67.0537 51.609 67.0439C51.0898 58.6134 57.5202 51.4542 65.8483 50.9473ZM50.486 70.9248C50.2991 71.1839 50.09 71.4294 49.86 71.6592C50.0138 71.5056 50.158 71.3448 50.2926 71.1777L50.486 70.9248Z" fill="#221A1D" stroke="#F3F1EF" stroke-width="12"/>
</svg>
