<svg width="124" height="123" viewBox="0 0 124 123" fill="none" xmlns="http://www.w3.org/2000/svg">
<path d="M64.3842 27.688L59.5038 27.6687C60.7577 45.6288 45.8093 60.5863 27.7735 59.3956L27.7792 63.4384C44.5013 62.3385 58.6884 75.1346 59.5501 91.5818C60.4157 108.089 47.7626 122.145 31.1662 122.963C14.8769 123.764 0.030915 110.922 0.0231867 94.1272L1.94139e-06 28.8227C-0.00579426 13.4677 12.968 0 28.4651 0H95.3784C112.129 0.00192974 124.786 15.0308 123.961 31.1152C123.109 47.7303 108.992 60.3238 92.4532 59.4149C76.021 58.5118 63.2307 44.3127 64.3822 27.688H64.3842Z" fill="#211A1D"/>
<path d="M92.5754 68.3401C106.14 67.5137 117.819 77.6734 118.913 91.1252L118.957 91.7678C119.704 105.147 109.654 116.725 96.2961 117.904L95.6575 117.952C82.0714 118.805 70.1419 108.5 69.2747 94.7161C69.2741 94.7051 69.2744 94.6939 69.2737 94.6829C68.4371 81.0971 78.6257 69.5362 91.9387 68.387L92.5754 68.3401ZM68.6848 97.3606C68.5546 97.6028 68.4041 97.835 68.2336 98.0549C68.4042 97.835 68.5546 97.6026 68.6848 97.3606Z" fill="#EEF0F2" stroke="#211A1D" stroke-width="10"/>
</svg>
