<?xml version="1.0" encoding="UTF-8"?>
<svg id="Layer_1" xmlns="http://www.w3.org/2000/svg" version="1.1" viewBox="0 0 363.04 1166.97">
  <!-- Generator: Adobe Illustrator 30.1.0, SVG Export Plug-In . SVG Version: 2.1.1 Build 136)  -->
  <defs>
    <style>
      .st0 {
        fill: #249782;
        stroke-width: 17.98px;
      }

      .st0, .st1, .st2 {
        stroke: #13151b;
        stroke-miterlimit: 10;
      }

      .st1 {
        fill: #fff;
      }

      .st1, .st2 {
        stroke-width: 19.58px;
      }

      .st2 {
        fill: #f9c9c7;
      }

      .st3 {
        fill: #ffcc1a;
      }

      .st4 {
        fill: #13151b;
      }
    </style>
  </defs>
  <path class="st3" d="M371.4,403.64s-85.1,182.6-184.59,183.76c37.1,2.75,140.72,11.2,184.59,113.47,65.98-103.43,0-297.22,0-297.22Z"/>
  <path class="st2" d="M391.85,781.58c0-97.61-93.49-191.64-174.51-191.64,0,0-123.88-5.18-173.01,126.53-49.13,131.71,93.35,260.45,144.94,328.53s224.78,139.11,200.21,19.24c-24.57-119.87,2.37-282.65,2.37-282.65Z"/>
  <path class="st1" d="M385.79,345.03c0,63.43-74.19,172.04-143.71,225.64-52.86,40.76-174.44,2.56-148.22-66.15,24.16-63.31,58-123.75,41.36-168.38-49.13-131.71-14.84-192.21,51.59-237.95,107.94-74.33,261.62-84.66,237.06,35.21-24.57,119.87-38.08,211.62-38.08,211.62Z"/>
  <ellipse class="st0" cx="208.46" cy="772.62" rx="121.62" ry="113.63"/>
  <ellipse class="st4" cx="303.36" cy="565.98" rx="6.58" ry="7.93"/>
  <ellipse class="st4" cx="320.64" cy="550.11" rx="6.58" ry="7.93"/>
  <ellipse class="st4" cx="320.64" cy="579.47" rx="6.58" ry="7.93"/>
  <ellipse class="st4" cx="335.59" cy="565.98" rx="6.58" ry="7.93"/>
  <ellipse class="st4" cx="337.92" cy="539.76" rx="6.58" ry="7.93"/>
  <ellipse class="st4" cx="337.92" cy="589.91" rx="6.58" ry="7.93"/>
</svg>