<?xml version="1.0" encoding="UTF-8"?>
<svg id="Layer_1" xmlns="http://www.w3.org/2000/svg" version="1.1" viewBox="0 0 622.33 244.1">
  <!-- Generator: Adobe Illustrator 30.1.0, SVG Export Plug-In . SVG Version: 2.1.1 Build 136)  -->
  <defs>
    <style>
      .st0 {
        fill: #249782;
        stroke-width: 14.02px;
      }

      .st0, .st1, .st2 {
        stroke: #13151b;
        stroke-miterlimit: 10;
      }

      .st1 {
        fill: #fff;
      }

      .st1, .st2 {
        stroke-width: 16.56px;
      }

      .st2 {
        fill: #f9c9c7;
      }

      .st3 {
        fill: #ffcc1a;
      }

      .st4 {
        fill: #13151b;
      }
    </style>
  </defs>
  <path class="st3" d="M612.6-6.86s-80.66,137.79-174.97,138.66c35.17,2.08,133.38,8.45,174.97,85.62,19.38,26.67,49.13,65.04,58.45,43.78,19.65-44.85,5.1-197.02-2.05-230.17-8.23-38.13-56.39-37.89-56.39-37.89h0Z"/>
  <path class="st3" d="M312.52-6.86s-80.66,137.79-174.97,138.66c35.17,2.08,133.38,8.45,174.97,85.62,19.38,26.67,129.9,21.18,139.21-.08,19.65-44.85-58.45-184.2-65.61-217.35-8.23-38.13-73.6-6.85-73.6-6.85h0Z"/>
  <path class="st2" d="M631.99,278.34h0c0-73.66-88.62-144.62-165.41-144.62,0,0-85.67-2.85-139.68,58.25-14.94,16.9-24.86,36.26-29.82,56.55-3.77,15.43-7.57,36.96-4.45,52.48"/>
  <path class="st0" d="M.14-71.72h0C-3.89,1.83,80.71,77.53,157.39,81.73c0,0,85.39,7.54,142.66-50.52,15.84-16.06,26.81-34.85,32.87-54.83,4.61-15.2,9.58-36.49,7.32-52.16"/>
  <path class="st1" d="M626.24-51.09h0c0,47.87-70.32,129.83-136.22,170.27-50.1,30.76-140.47,8.53-140.49-49.92,3.25-52.21,54.98-93.38,39.2-127.06"/>
  <path class="st1" d="M59.98,299.02h0c-8.54-47.1,46.02-140.3,103.64-191.85,43.81-39.21,136.69-33.47,147.15,24.04,6.12,51.95-37.42,101.69-15.89,132.02"/>
  <ellipse class="st0" cx="458.16" cy="261.57" rx="98.05" ry="85.74"/>
  <ellipse class="st4" cx="566.93" cy="115.64" rx="4.97" ry="5.98"/>
  <ellipse class="st4" cx="579.97" cy="103.67" rx="4.97" ry="5.98"/>
  <ellipse class="st4" cx="579.97" cy="125.82" rx="4.97" ry="5.98"/>
  <ellipse class="st4" cx="591.25" cy="115.64" rx="4.97" ry="5.98"/>
  <ellipse class="st4" cx="593.01" cy="95.86" rx="4.97" ry="5.98"/>
  <ellipse class="st4" cx="593.01" cy="133.7" rx="4.97" ry="5.98"/>
</svg>